<?xml version="1.0" standalone="no"?>
<!DOCTYPE svg PUBLIC "-//W3C//DTD SVG 20010904//EN"
 "http://www.w3.org/TR/2001/REC-SVG-20010904/DTD/svg10.dtd">
<svg version="1.0" xmlns="http://www.w3.org/2000/svg"
 width="1545.000000pt" height="521.000000pt" viewBox="0 0 1545.000000 521.000000"
 preserveAspectRatio="xMidYMid meet">

<g transform="translate(0.000000,521.000000) scale(0.100000,-0.100000)"
fill="#000000" stroke="none">
<path d="M823 3303 c-447 -257 -813 -470 -813 -473 0 -3 366 -216 813 -473
l812 -466 3 470 c1 258 1 680 0 939 l-3 469 -812 -466z"/>
<path d="M6433 3748 c-230 -19 -459 -142 -606 -323 -241 -298 -263 -787 -49
-1109 47 -72 185 -216 206 -216 10 0 176 278 176 294 0 4 -14 21 -30 39 -47
49 -86 115 -112 187 -20 57 -23 84 -23 220 0 137 3 163 23 223 76 219 272 358
508 359 162 1 272 -40 362 -136 45 -47 92 -129 115 -198 6 -18 -8 -22 210 46
64 21 117 41 117 46 0 23 -53 148 -87 203 -50 82 -152 188 -232 241 -155 102
-351 144 -578 124z"/>
<path d="M9880 3749 c-146 -12 -338 -74 -325 -106 4 -11 94 -141 181 -261 1
-2 33 6 71 18 78 24 230 30 302 10 153 -41 293 -153 355 -285 53 -110 70 -300
41 -440 -17 -82 -38 -133 -78 -193 l-28 -43 97 -137 c53 -75 99 -139 101 -141
8 -10 78 69 128 144 90 135 129 250 145 427 10 113 -1 280 -19 286 -6 2 -11
23 -11 46 0 124 -122 336 -261 456 -195 168 -426 240 -699 219z"/>
<path d="M11650 3750 c-143 -14 -260 -66 -364 -163 -99 -93 -152 -193 -170
-324 l-6 -43 169 0 170 0 7 38 c13 70 59 129 134 168 54 29 239 27 295 -3 55
-29 117 -98 141 -156 17 -41 23 -47 49 -47 17 0 84 17 150 38 l120 38 -2 34
c-1 18 -18 67 -39 109 -109 222 -355 339 -654 311z"/>
<path d="M13145 3749 c-205 -19 -395 -141 -481 -311 -27 -54 -54 -148 -54
-190 l0 -28 170 0 170 0 0 27 c0 73 73 156 163 187 54 18 164 21 219 6 88 -25
187 -127 204 -211 l6 -26 148 46 c82 25 151 49 155 52 8 9 -36 127 -69 184
-41 70 -138 160 -209 195 -117 57 -272 82 -422 69z"/>
<path d="M2260 2840 l0 -880 175 0 175 0 0 365 0 365 380 0 380 0 0 -365 0
-365 175 0 175 0 0 880 0 880 -175 0 -175 0 0 -355 0 -355 -380 0 -380 0 0
355 0 355 -175 0 -175 0 0 -880z"/>
<path d="M3940 3715 c0 -2 119 -202 264 -442 l264 -438 253 0 253 0 268 438
c147 241 268 441 268 443 0 2 -86 3 -192 2 l-192 -3 -195 -343 c-175 -307
-197 -342 -208 -325 -7 11 -96 165 -197 344 l-184 324 -201 3 c-111 1 -201 0
-201 -3z"/>
<path d="M7620 2841 l0 -881 175 0 175 0 0 340 0 340 89 0 88 0 173 -340 173
-340 188 0 c104 0 189 3 189 8 0 4 -83 164 -184 357 l-184 349 80 38 c137 64
236 182 273 325 19 73 19 213 0 286 -48 183 -181 318 -370 375 -40 12 -131 16
-457 19 l-408 4 0 -880z m737 563 c103 -35 153 -99 161 -207 8 -113 -39 -196
-138 -241 -39 -17 -70 -21 -227 -24 l-183 -4 0 246 0 246 170 0 c129 0 180 -4
217 -16z"/>
<path d="M9318 3483 c-88 -91 -137 -165 -178 -267 -54 -135 -64 -195 -64 -381
0 -146 3 -181 22 -248 50 -176 112 -284 229 -400 178 -177 383 -260 643 -260
180 0 336 39 462 116 l38 22 -96 135 c-53 74 -97 137 -100 139 -2 2 -15 -4
-28 -13 -14 -8 -59 -27 -100 -41 -102 -34 -250 -35 -347 -2 -184 63 -307 193
-356 379 -11 41 -16 103 -16 178 0 175 41 301 131 401 l42 47 -96 136 c-53 75
-100 136 -103 136 -4 0 -41 -35 -83 -77z"/>
<path d="M11161 2988 c52 -103 156 -194 276 -243 37 -15 151 -45 252 -66 208
-45 268 -71 310 -133 21 -33 26 -51 26 -106 0 -88 -30 -136 -111 -176 -98 -48
-265 -44 -367 8 -84 42 -158 143 -176 239 -4 24 -12 44 -17 43 -5 -1 -76 -19
-158 -40 l-148 -39 5 -47 c11 -93 93 -242 179 -325 209 -203 650 -240 897 -77
277 184 333 543 119 771 -103 109 -204 156 -438 202 -148 30 -164 31 -412 31
l-258 0 21 -42z"/>
<path d="M12640 3023 c0 -22 64 -114 106 -155 111 -108 192 -141 479 -198 149
-30 206 -53 249 -100 31 -35 56 -91 56 -130 0 -70 -53 -144 -128 -181 -41 -20
-62 -23 -162 -24 -105 0 -120 2 -176 28 -102 47 -182 149 -199 255 -4 23 -7
42 -8 42 -1 -1 -72 -20 -157 -43 l-155 -43 3 -38 c5 -56 39 -142 87 -216 87
-134 219 -228 384 -272 101 -27 315 -30 411 -5 177 46 321 160 396 311 l39 80
0 130 c0 131 0 131 -38 210 -61 129 -181 230 -331 280 -27 9 -116 30 -198 46
-142 29 -162 30 -404 30 -139 0 -254 -3 -254 -7z"/>
<path d="M4550 2300 l0 -340 170 0 170 0 0 340 0 340 -170 0 -170 0 0 -340z"/>
<path d="M7020 2607 c0 -33 -64 -141 -120 -200 -96 -103 -206 -147 -368 -147
-43 0 -105 7 -137 16 -98 27 -88 33 -180 -123 -94 -161 -95 -145 10 -181 99
-33 183 -46 315 -45 156 0 267 25 400 90 81 39 108 59 186 137 55 55 107 118
131 161 49 85 90 193 77 204 -5 5 -72 28 -149 50 -77 23 -146 44 -152 46 -7 2
-13 -1 -13 -8z"/>
</g>
</svg>
