<?xml version="1.0" encoding="UTF-8" standalone="no"?>
<!-- Created with Inkscape (http://www.inkscape.org/) -->

<svg
   xmlns:dc="http://purl.org/dc/elements/1.1/"
   xmlns:cc="http://creativecommons.org/ns#"
   xmlns:rdf="http://www.w3.org/1999/02/22-rdf-syntax-ns#"
   xmlns:svg="http://www.w3.org/2000/svg"
   xmlns="http://www.w3.org/2000/svg"
   xmlns:sodipodi="http://sodipodi.sourceforge.net/DTD/sodipodi-0.dtd"
   xmlns:inkscape="http://www.inkscape.org/namespaces/inkscape"
   version="1.1"
   id="svg2"
   xml:space="preserve"
   width="2000mm"
   height="1200mm"
   viewBox="0 0 7559.0551 4535.4332"
   sodipodi:docname="otto_card.svg"
   inkscape:version="0.92.1 r15371"><metadata
     id="metadata8"><rdf:RDF><cc:Work
         rdf:about=""><dc:format>image/svg+xml</dc:format><dc:type
           rdf:resource="http://purl.org/dc/dcmitype/StillImage" /><dc:title></dc:title></cc:Work></rdf:RDF></metadata><defs
     id="defs6"><marker
       inkscape:stockid="Arrow1Lend"
       orient="auto"
       refY="0"
       refX="0"
       id="Arrow1Lend"
       style="overflow:visible"
       inkscape:isstock="true"><path
         id="path6090"
         d="M 0,0 5,-5 -12.5,0 5,5 Z"
         style="fill:#000000;fill-opacity:1;fill-rule:evenodd;stroke:#000000;stroke-width:1.00000003pt;stroke-opacity:1"
         transform="matrix(-0.8,0,0,-0.8,-10,0)"
         inkscape:connector-curvature="0" /></marker><marker
       inkscape:stockid="Arrow1Lstart"
       orient="auto"
       refY="0"
       refX="0"
       id="Arrow1Lstart"
       style="overflow:visible"
       inkscape:isstock="true"><path
         id="path6087"
         d="M 0,0 5,-5 -12.5,0 5,5 Z"
         style="fill:#000000;fill-opacity:1;fill-rule:evenodd;stroke:#000000;stroke-width:1.00000003pt;stroke-opacity:1"
         transform="matrix(0.8,0,0,0.8,10,0)"
         inkscape:connector-curvature="0" /></marker><marker
       inkscape:stockid="Arrow1Lstart"
       orient="auto"
       refY="0"
       refX="0"
       id="Arrow1Lstart-6"
       style="overflow:visible"
       inkscape:isstock="true"><path
         id="path6087-1"
         d="M 0,0 5,-5 -12.5,0 5,5 Z"
         style="fill:#000000;fill-opacity:1;fill-rule:evenodd;stroke:#000000;stroke-width:1.00000003pt;stroke-opacity:1"
         transform="matrix(0.8,0,0,0.8,10,0)"
         inkscape:connector-curvature="0" /></marker><marker
       inkscape:stockid="Arrow1Lend"
       orient="auto"
       refY="0"
       refX="0"
       id="Arrow1Lend-9"
       style="overflow:visible"
       inkscape:isstock="true"><path
         id="path6090-3"
         d="M 0,0 5,-5 -12.5,0 5,5 Z"
         style="fill:#000000;fill-opacity:1;fill-rule:evenodd;stroke:#000000;stroke-width:1.00000003pt;stroke-opacity:1"
         transform="matrix(-0.8,0,0,-0.8,-10,0)"
         inkscape:connector-curvature="0" /></marker></defs><sodipodi:namedview
     pagecolor="#ffffff"
     bordercolor="#666666"
     borderopacity="1"
     objecttolerance="10"
     gridtolerance="10"
     guidetolerance="10"
     inkscape:pageopacity="0"
     inkscape:pageshadow="2"
     inkscape:window-width="1920"
     inkscape:window-height="1001"
     id="namedview4"
     showgrid="false"
     inkscape:zoom="0.074328852"
     inkscape:cx="3004.8145"
     inkscape:cy="2592.7242"
     inkscape:window-x="-9"
     inkscape:window-y="-9"
     inkscape:window-maximized="1"
     inkscape:current-layer="g10"
     units="mm"
     height="1200mm"
     inkscape:document-units="cm" /><g
     id="g10"
     inkscape:groupmode="layer"
     inkscape:label="otto_card"
     transform="translate(0,3412.8731)"><g
       id="g44"
       style="fill:#000000;stroke:none"
       transform="matrix(10.052894,0,0,10.052894,-5212.0514,-6476.2114)"><path
         d="M 760.32001,603.67999 H 890.88 V 592.32001 H 760.32001 v 11.35998"
         style="fill:#000000;stroke:none;stroke-width:0.5;stroke-linecap:round;stroke-linejoin:round;stroke-miterlimit:10;stroke-dasharray:none;stroke-opacity:1"
         id="path46"
         inkscape:connector-curvature="0" /></g><g
       id="g56"
       style="fill:#000000;stroke:none"
       transform="matrix(10.052894,0,0,10.052894,-5212.0514,-6476.2114)"><path
         d="M 760.32001,585.12 H 890.88 V 573.91998 H 760.32001 V 585.12"
         style="fill:#000000;stroke:none;stroke-width:0.5;stroke-linecap:round;stroke-linejoin:round;stroke-miterlimit:10;stroke-dasharray:none;stroke-opacity:1"
         id="path58"
         inkscape:connector-curvature="0" /></g><g
       id="g68"
       transform="matrix(10.052894,0,0,10.052894,4799.0225,-571.54387)"
       style="fill:#000000;stroke:none"><path
         d="m 0,0 v 1.92 l -0.32,1.92 -0.48,1.92 -0.64,1.92 -0.8,1.92 -1.12,1.76 -1.28,1.76 -1.44,1.6 -1.6,1.44 -1.6,1.280001 -1.92,1.119998 -1.92,0.800002 L -15.04,20 l -1.919999,0.48 -1.92,0.319999 h -1.76 -1.92 L -24.48,20.48 -26.4,20 -28.32,19.360001 -30.24,18.559999 -32.16,17.440001 -33.759998,16.16 -35.360001,14.72 -36.799999,13.12 -38.080002,11.36 -39.200001,9.6 -40,7.68 l -0.639999,-1.92 -0.48,-1.92 -0.32,-1.92 V 0 -1.76 l 0.32,-1.92 0.48,-2.08 L -40,-7.68 l 0.799999,-1.76 1.119999,-1.92 1.280003,-1.76 1.439998,-1.6 1.600003,-1.44 L -32.16,-17.440001 -30.24,-18.4 -28.32,-19.360001 -26.4,-20 l 1.92,-0.48 1.920001,-0.159999 1.92,-0.16 1.76,0.16 1.92,0.159999 1.919999,0.48 1.92,0.639999 1.92,0.960001 1.92,0.959999 1.6,1.280001 1.6,1.44 1.44,1.6 1.28,1.76 1.12,1.92 0.8,1.76 0.64,1.92 0.48,2.08 L 0,-1.76 V 0"
         style="fill:#000000;stroke:none;stroke-width:0.5;stroke-linecap:round;stroke-linejoin:round;stroke-miterlimit:10;stroke-dasharray:none;stroke-opacity:1"
         id="path70"
         inkscape:connector-curvature="0" /></g><g
       id="g80"
       transform="matrix(10.052894,0,0,10.052894,4250.5368,-571.54387)"
       style="fill:#000000;stroke:none"><path
         d="m 0,0 v -1.76 l -0.32,-1.92 -0.48,-2.08 -0.64,-1.92 -0.8,-1.76 -1.12,-1.92 -1.28,-1.76 -1.44,-1.6 -1.6,-1.44 -1.6,-1.280001 L -11.2,-18.4 -13.12,-19.360001 -15.04,-20 l -1.919999,-0.48 -1.92,-0.159999 -1.92,-0.16 -1.76,0.16 L -24.48,-20.48 -26.4,-20 l -1.92,0.639999 -1.92,0.960001 -1.92,0.959999 -1.599998,1.280001 -1.600003,1.44 -1.439998,1.6 -1.280003,1.76 -1.119999,1.92 L -40,-7.68 l -0.639999,1.92 -0.48,2.08 -0.32,1.92 -0.159999,1.76 0.159999,1.92 0.32,1.92 0.48,1.92 L -40,7.68 l 0.799999,1.92 1.119999,1.76 1.280003,1.76 1.439998,1.6 1.600003,1.44 1.599998,1.280001 1.92,1.119998 1.92,0.800002 L -26.4,20 l 1.92,0.48 1.920001,0.319999 h 1.76 1.92 L -16.959999,20.48 -15.04,20 l 1.92,-0.639999 1.92,-0.800002 1.92,-1.119998 1.6,-1.280001 1.6,-1.44 1.44,-1.6 1.28,-1.76 L -2.24,9.6 -1.44,7.68 -0.8,5.76 -0.32,3.84 0,1.92 V 0"
         style="fill:#000000;stroke:none;stroke-width:0.5;stroke-linecap:round;stroke-linejoin:round;stroke-miterlimit:10;stroke-dasharray:none;stroke-opacity:1"
         id="path82"
         inkscape:connector-curvature="0" /></g><g
       id="g456"
       transform="matrix(10.052894,0,0,10.052894,-5272.3687,-6435.9998)"><path
         d="M 767.20001,547.52002 H 945.28003 V 528.64001 H 767.20001 v 18.88001"
         style="fill:none;stroke:#000000;stroke-width:0.5;stroke-linecap:round;stroke-linejoin:round;stroke-miterlimit:10;stroke-dasharray:none;stroke-opacity:1"
         id="path458"
         inkscape:connector-curvature="0" /></g><g
       id="g488"
       transform="matrix(10.052894,0,0,10.052894,-5272.3687,-6435.9998)"><path
         d="m 767.20001,487.04001 h 130.56 V 468.16 h -130.56 v 18.88001"
         style="fill:none;stroke:#000000;stroke-width:0.5;stroke-linecap:round;stroke-linejoin:round;stroke-miterlimit:10;stroke-dasharray:none;stroke-opacity:1"
         id="path490"
         inkscape:connector-curvature="0" /></g><g
       id="g500"
       transform="matrix(10.052894,0,0,10.052894,-5272.3687,-6435.9998)"><path
         d="m 767.20001,460.32001 h 130.56 V 441.44 h -130.56 v 18.88001"
         style="fill:none;stroke:#000000;stroke-width:0.5;stroke-linecap:round;stroke-linejoin:round;stroke-miterlimit:10;stroke-dasharray:none;stroke-opacity:1"
         id="path502"
         inkscape:connector-curvature="0" /></g><g
       id="g552"
       transform="matrix(10.052894,0,0,10.052894,-5272.3687,-6435.9998)"><path
         d="m 767.20001,523.67999 h 178.08002 v -18.88 H 767.20001 v 18.88"
         style="fill:none;stroke:#000000;stroke-width:0.5;stroke-linecap:round;stroke-linejoin:round;stroke-miterlimit:10;stroke-dasharray:none;stroke-opacity:1"
         id="path554"
         inkscape:connector-curvature="0" /></g><g
       id="g5783"
       style="stroke:#000000;stroke-width:1"
       transform="matrix(10.052894,0,0,10.052894,-5319.9348,-6312.3279)"><g
         id="g468"
         style="stroke:#000000;stroke-width:1"
         transform="translate(4.7315832,-12.302116)"><path
           inkscape:connector-curvature="0"
           id="path470"
           style="fill:none;stroke:#000000;stroke-width:1;stroke-linecap:round;stroke-linejoin:round;stroke-miterlimit:10;stroke-dasharray:none;stroke-opacity:1"
           d="M 570.23999,715.67999 V 611.84003" /></g><g
         id="g472"
         style="stroke:#000000;stroke-width:1"
         transform="translate(4.7315832,-12.302116)"><path
           inkscape:connector-curvature="0"
           id="path474"
           style="fill:none;stroke:#000000;stroke-width:1;stroke-linecap:round;stroke-linejoin:round;stroke-miterlimit:10;stroke-dasharray:none;stroke-opacity:1"
           d="M 570.23999,715.67999 H 721.44 V 611.84003" /></g><g
         id="g476"
         style="stroke:#000000;stroke-width:1"
         transform="translate(4.7315832,-12.302116)"><path
           inkscape:connector-curvature="0"
           id="path478"
           style="fill:none;stroke:#000000;stroke-width:1;stroke-linecap:round;stroke-linejoin:round;stroke-miterlimit:10;stroke-dasharray:none;stroke-opacity:1"
           d="M 570.23999,611.84003 H 721.44" /></g><g
         id="g512"
         style="stroke:#000000;stroke-width:1"
         transform="translate(4.7315832,-12.302116)"><path
           inkscape:connector-curvature="0"
           id="path514"
           style="fill:none;stroke:#000000;stroke-width:1;stroke-linecap:round;stroke-linejoin:round;stroke-miterlimit:10;stroke-dasharray:none;stroke-opacity:1"
           d="M 721.44,715.67999 V 611.84003" /></g><g
         id="g516"
         style="stroke:#000000;stroke-width:1"
         transform="translate(4.7315832,-12.302116)"><path
           inkscape:connector-curvature="0"
           id="path518"
           style="fill:none;stroke:#000000;stroke-width:1;stroke-linecap:round;stroke-linejoin:round;stroke-miterlimit:10;stroke-dasharray:none;stroke-opacity:1"
           d="m 721.44,715.67999 h 26.71997 V 611.84003" /></g><g
         id="g520"
         style="stroke:#000000;stroke-width:1"
         transform="translate(4.7315832,-12.302116)"><path
           inkscape:connector-curvature="0"
           id="path522"
           style="fill:none;stroke:#000000;stroke-width:1;stroke-linecap:round;stroke-linejoin:round;stroke-miterlimit:10;stroke-dasharray:none;stroke-opacity:1"
           d="m 721.44,611.84003 h 26.71997" /></g><g
         id="g532"
         style="stroke:#000000;stroke-width:1"
         transform="translate(4.7315832,-12.302116)"><path
           inkscape:connector-curvature="0"
           id="path534"
           style="fill:none;stroke:#000000;stroke-width:1;stroke-linecap:round;stroke-linejoin:round;stroke-miterlimit:10;stroke-dasharray:none;stroke-opacity:1"
           d="M 748.15997,715.67999 V 611.84003" /></g><g
         id="g536"
         style="stroke:#000000;stroke-width:1"
         transform="translate(4.7315832,-12.302116)"><path
           inkscape:connector-curvature="0"
           id="path538"
           style="fill:none;stroke:#000000;stroke-width:1;stroke-linecap:round;stroke-linejoin:round;stroke-miterlimit:10;stroke-dasharray:none;stroke-opacity:1"
           d="M 748.15997,715.67999 H 899.35998 V 611.84003" /></g><g
         id="g540"
         style="stroke:#000000;stroke-width:1"
         transform="translate(4.7315832,-12.302116)"><path
           inkscape:connector-curvature="0"
           id="path542"
           style="fill:none;stroke:#000000;stroke-width:1;stroke-linecap:round;stroke-linejoin:round;stroke-miterlimit:10;stroke-dasharray:none;stroke-opacity:1"
           d="M 748.15997,611.84003 H 899.35998" /></g><g
         id="g564"
         style="stroke:#000000;stroke-width:1"
         transform="translate(4.7315832,-12.302116)"><path
           inkscape:connector-curvature="0"
           id="path566"
           style="fill:none;stroke:#000000;stroke-width:1;stroke-linecap:round;stroke-linejoin:round;stroke-miterlimit:10;stroke-dasharray:none;stroke-opacity:1"
           d="M 899.35998,715.67999 V 611.84003" /></g><g
         id="g568"
         style="stroke:#000000;stroke-width:1"
         transform="translate(4.7315832,-12.302116)"><path
           inkscape:connector-curvature="0"
           id="path570"
           style="fill:none;stroke:#000000;stroke-width:1;stroke-linecap:round;stroke-linejoin:round;stroke-miterlimit:10;stroke-dasharray:none;stroke-opacity:1"
           d="m 899.35998,715.67999 h 26.72004 V 611.84003" /></g><g
         id="g572"
         style="stroke:#000000;stroke-width:1"
         transform="translate(4.7315832,-12.302116)"><path
           inkscape:connector-curvature="0"
           id="path574"
           style="fill:none;stroke:#000000;stroke-width:1;stroke-linecap:round;stroke-linejoin:round;stroke-miterlimit:10;stroke-dasharray:none;stroke-opacity:1"
           d="m 899.35998,611.84003 h 26.72004" /></g><g
         id="g584"
         style="stroke:#000000;stroke-width:1"
         transform="translate(4.7315832,-12.302116)"><path
           inkscape:connector-curvature="0"
           id="path586"
           style="fill:none;stroke:#000000;stroke-width:1;stroke-linecap:round;stroke-linejoin:round;stroke-miterlimit:10;stroke-dasharray:none;stroke-opacity:1"
           d="m 543.52002,715.67999 h 26.71997 V 611.84003" /></g><g
         id="g588"
         style="stroke:#000000;stroke-width:1"
         transform="translate(4.7315832,-12.302116)"><path
           inkscape:connector-curvature="0"
           id="path590"
           style="fill:none;stroke:#000000;stroke-width:1;stroke-linecap:round;stroke-linejoin:round;stroke-miterlimit:10;stroke-dasharray:none;stroke-opacity:1"
           d="M 543.52002,715.67999 V 611.84003 h 26.71997" /></g><g
         id="g624"
         style="stroke:#000000;stroke-width:1"
         transform="translate(4.7315832,-12.302116)"><path
           inkscape:connector-curvature="0"
           id="path626"
           style="fill:none;stroke:#000000;stroke-width:1;stroke-linecap:round;stroke-linejoin:round;stroke-miterlimit:10;stroke-dasharray:none;stroke-opacity:1"
           d="M 926.08002,715.67999 V 611.84003" /></g><g
         id="g628"
         style="stroke:#000000;stroke-width:1"
         transform="translate(4.7315832,-12.302116)"><path
           inkscape:connector-curvature="0"
           id="path630"
           style="fill:none;stroke:#000000;stroke-width:1;stroke-linecap:round;stroke-linejoin:round;stroke-miterlimit:10;stroke-dasharray:none;stroke-opacity:1"
           d="M 926.08002,715.67999 H 1077.28 V 611.84003" /></g><g
         id="g632"
         style="stroke:#000000;stroke-width:1"
         transform="translate(4.7315832,-12.302116)"><path
           inkscape:connector-curvature="0"
           id="path634"
           style="fill:none;stroke:#000000;stroke-width:1;stroke-linecap:round;stroke-linejoin:round;stroke-miterlimit:10;stroke-dasharray:none;stroke-opacity:1"
           d="M 926.08002,611.84003 H 1077.28" /></g><g
         id="g644"
         style="stroke:#000000;stroke-width:1"
         transform="translate(4.7315832,-12.302116)"><path
           inkscape:connector-curvature="0"
           id="path646"
           style="fill:none;stroke:#000000;stroke-width:1;stroke-linecap:round;stroke-linejoin:round;stroke-miterlimit:10;stroke-dasharray:none;stroke-opacity:1"
           d="M 1077.28,715.67999 V 611.84003" /></g><g
         id="g648"
         style="stroke:#000000;stroke-width:1"
         transform="translate(4.7315832,-12.302116)"><path
           inkscape:connector-curvature="0"
           id="path650"
           style="fill:none;stroke:#000000;stroke-width:1;stroke-linecap:round;stroke-linejoin:round;stroke-miterlimit:10;stroke-dasharray:none;stroke-opacity:1"
           d="M 1077.28,715.67999 H 1104 V 611.84003" /></g><g
         id="g652"
         style="stroke:#000000;stroke-width:1"
         transform="translate(4.7315832,-12.302116)"><path
           inkscape:connector-curvature="0"
           id="path654"
           style="fill:none;stroke:#000000;stroke-width:1;stroke-linecap:round;stroke-linejoin:round;stroke-miterlimit:10;stroke-dasharray:none;stroke-opacity:1"
           d="M 1077.28,611.84003 H 1104" /></g><g
         id="g788"
         style="stroke:#000000;stroke-width:1"
         transform="translate(4.7315832,-12.302116)"><path
           inkscape:connector-curvature="0"
           id="path790"
           style="fill:none;stroke:#000000;stroke-width:1;stroke-linecap:round;stroke-linejoin:round;stroke-miterlimit:10;stroke-dasharray:none;stroke-opacity:1"
           d="M 1255.2,715.67999 V 611.84003" /></g><g
         id="g792"
         style="stroke:#000000;stroke-width:1"
         transform="translate(4.7315832,-12.302116)"><path
           inkscape:connector-curvature="0"
           id="path794"
           style="fill:none;stroke:#000000;stroke-width:1;stroke-linecap:round;stroke-linejoin:round;stroke-miterlimit:10;stroke-dasharray:none;stroke-opacity:1"
           d="M 1104,715.67999 V 611.84003" /></g><g
         id="g796"
         style="stroke:#000000;stroke-width:1"
         transform="translate(4.7315832,-12.302116)"><path
           inkscape:connector-curvature="0"
           id="path798"
           style="fill:none;stroke:#000000;stroke-width:1;stroke-linecap:round;stroke-linejoin:round;stroke-miterlimit:10;stroke-dasharray:none;stroke-opacity:1"
           d="m 1104,715.67999 h 151.2" /></g><g
         id="g800"
         style="stroke:#000000;stroke-width:1"
         transform="translate(4.7315832,-12.302116)"><path
           inkscape:connector-curvature="0"
           id="path802"
           style="fill:none;stroke:#000000;stroke-width:1;stroke-linecap:round;stroke-linejoin:round;stroke-miterlimit:10;stroke-dasharray:none;stroke-opacity:1"
           d="m 1104,611.84003 h 151.2" /></g></g><g
       id="g6079"
       transform="matrix(10.052894,0,0,10.052894,-5272.3687,-6435.9998)"><g
         transform="translate(1015.84,518.23999)"
         id="g972"><path
           inkscape:connector-curvature="0"
           id="path974"
           style="fill:none;stroke:#000000;stroke-width:0.5;stroke-linecap:round;stroke-linejoin:round;stroke-miterlimit:10;stroke-dasharray:none;stroke-opacity:1"
           d="m 0,0 -0.16,-2.56 -0.16,-1.28 -0.16,-1.44 -0.32,-1.28 -0.32,-1.28 -0.32,-1.28 -0.48,-1.28 -0.64,-1.44 -0.64,-1.28 -0.64,-1.28 -0.8,-1.12 -0.8,-1.279999 -0.96,-1.120001 -1.92,-2.24 -2.24,-1.92 -1.12,-0.799999 -1.12,-0.960001 -1.28,-0.64 -1.28,-0.800001 L -16.639999,-25.92 -17.92,-26.4 -19.200001,-26.879999 -20.48,-27.360001 -21.92,-27.68 l -1.280001,-0.16 -1.279999,-0.32 -1.28,-0.16 h -2.56 -2.559999 l -1.280001,0.16 -1.279999,0.32 -1.440002,0.16 -1.279999,0.319999 -1.279999,0.480002 -1.280002,0.479999 -1.439999,0.48 -1.279999,0.639999 -1.120002,0.800001 -1.279999,0.64 -1.279999,0.960001 -1.120003,0.799999 -2.079998,1.92 -2.080002,2.24 -0.799999,1.120001 L -52,-15.52 l -0.799999,1.12 -0.799999,1.28 -0.480004,1.28 -0.639999,1.44 -0.48,1.28 -0.479999,1.28 -0.32,1.28 -0.16,1.28 -0.32,1.44 -0.159999,1.28 V 0 2.56 l 0.159999,1.28 0.32,1.28 0.16,1.28 0.32,1.28 0.479999,1.44 0.48,1.28 0.639999,1.28 0.480004,1.28 0.799999,1.28 L -52,15.52 -51.200001,16.639999 -50.400002,17.76 -48.32,20 l 2.079998,1.92 1.120003,0.959999 L -43.84,23.68 l 1.279999,0.8 1.120002,0.640001 L -40.16,25.76 l 1.439999,0.48 1.280002,0.479999 1.279999,0.480002 1.279999,0.319999 1.440002,0.32 1.279999,0.16 1.280001,0.16 2.559999,0.16 2.56,-0.16 1.28,-0.16 1.279999,-0.16 1.280001,-0.32 1.44,-0.319999 1.279999,-0.480002 L -17.92,26.24 -16.639999,25.76 -15.36,25.120001 -14.08,24.48 -12.8,23.68 -11.68,22.879999 -10.56,21.92 -8.32,20 -6.4,17.76 -5.44,16.639999 -4.64,15.52 -3.84,14.24 -3.2,12.96 -2.56,11.68 -1.92,10.4 -1.44,9.12 -1.12,7.68 -0.8,6.4 -0.48,5.12 -0.32,3.84 -0.16,2.56 0,0" /></g><g
         transform="translate(1008.32,518.23999)"
         id="g976"><path
           inkscape:connector-curvature="0"
           id="path978"
           style="fill:none;stroke:#000000;stroke-width:0.5;stroke-linecap:round;stroke-linejoin:round;stroke-miterlimit:10;stroke-dasharray:none;stroke-opacity:1"
           d="M 0,0 -0.16,1.76 -0.32,3.68 -0.8,5.6 -1.44,7.68 -2.4,9.44 l -0.96,1.92 -1.28,1.76 -1.44,1.6 -1.6,1.44 -1.76,1.120001 L -11.36,18.4 -13.12,19.360001 -15.04,20 l -2.080001,0.32 -1.92,0.319999 -1.759998,0.16 -1.92,-0.16 -1.92,-0.319999 -1.92,-0.32 L -28.48,19.360001 -30.4,18.4 -32.16,17.280001 -33.919998,16.16 -35.52,14.72 -36.959999,13.12 -38.240002,11.36 -39.360001,9.44 -40.16,7.68 -40.799999,5.6 l -0.48,-1.92 -0.319999,-1.92 V 0 -1.92 l 0.319999,-1.92 0.48,-1.92 0.639999,-1.92 0.799999,-1.92 1.119999,-1.76 1.280003,-1.76 1.439999,-1.6 1.600002,-1.44 1.759998,-1.280001 1.76,-1.119998 1.92,-0.800002 1.920001,-0.639999 1.92,-0.48 1.92,-0.319999 h 1.92 1.759998 l 1.92,0.319999 2.080001,0.48 1.92,0.639999 1.76,0.800002 1.92,1.119998 1.76,1.280001 1.6,1.44 1.44,1.6 1.28,1.76 0.96,1.76 0.96,1.92 0.64,1.92 0.48,1.92 0.16,1.92 L 0,0" /></g></g><g
       id="g6073"
       transform="matrix(10.052894,0,0,10.052894,-5272.3687,-6435.9998)"><g
         transform="translate(1015.84,456.48001)"
         id="g996"><path
           inkscape:connector-curvature="0"
           id="path998"
           style="fill:none;stroke:#000000;stroke-width:0.5;stroke-linecap:round;stroke-linejoin:round;stroke-miterlimit:10;stroke-dasharray:none;stroke-opacity:1"
           d="m 0,0 -0.16,2.56 -0.16,1.28 -0.16,1.44 -0.32,1.28 -0.32,1.28 -0.32,1.28 -0.48,1.44 -0.64,1.28 -0.64,1.28 -0.64,1.28 -0.8,1.12 -0.8,1.279999 -0.96,1.120001 -1.92,2.24 -2.24,1.92 -1.12,0.960001 -1.12,0.799999 -1.28,0.64 -1.28,0.800001 L -16.639999,25.92 -17.92,26.4 -19.200001,26.879999 -20.48,27.360001 -21.92,27.68 -23.200001,28 -24.48,28.16 l -1.28,0.16 -2.56,0.16 -2.559999,-0.16 L -32.16,28.16 -33.439999,28 -34.880001,27.68 -36.16,27.360001 -37.439999,26.879999 -38.720001,26.4 -40.16,25.92 -41.439999,25.280001 -42.560001,24.48 -43.84,23.84 -45.119999,23.040001 -46.240002,22.08 -48.32,20.16 -50.400002,17.92 -51.200001,16.799999 -52,15.52 l -0.799999,-1.12 -0.799999,-1.28 -0.480004,-1.28 -0.639999,-1.28 -0.48,-1.44 L -55.68,7.84 -56,6.56 -56.16,5.28 -56.48,3.84 -56.639999,2.56 V 0 -2.56 l 0.159999,-1.28 0.32,-1.28 0.16,-1.28 0.32,-1.28 0.479999,-1.44 0.48,-1.28 0.639999,-1.28 0.480004,-1.28 0.799999,-1.28 L -52,-15.52 -51.200001,-16.639999 -50.400002,-17.76 -48.32,-20 l 2.079998,-1.92 1.120003,-0.959999 L -43.84,-23.68 l 1.279999,-0.8 1.120002,-0.640001 L -40.16,-25.76 l 1.439999,-0.48 1.280002,-0.479999 1.279999,-0.480002 1.279999,-0.319999 1.440002,-0.32 1.279999,-0.16 1.280001,-0.16 2.559999,-0.16 2.56,0.16 1.28,0.16 1.279999,0.16 1.280001,0.32 1.44,0.319999 1.279999,0.480002 1.280001,0.479999 1.280001,0.48 1.279999,0.639999 1.28,0.640001 1.28,0.8 1.12,0.800001 1.12,0.959999 2.24,1.92 1.92,2.24 0.96,1.120001 0.8,1.119999 0.8,1.28 0.64,1.28 0.64,1.28 0.64,1.28 0.48,1.28 0.32,1.44 0.32,1.28 0.32,1.28 0.16,1.28 0.16,1.28 L 0,0" /></g><g
         transform="translate(1008.32,456.48001)"
         id="g1000"><path
           inkscape:connector-curvature="0"
           id="path1002"
           style="fill:none;stroke:#000000;stroke-width:0.5;stroke-linecap:round;stroke-linejoin:round;stroke-miterlimit:10;stroke-dasharray:none;stroke-opacity:1"
           d="M 0,0 -0.16,-1.76 -0.32,-3.68 -0.8,-5.6 -1.44,-7.52 -2.4,-9.44 l -0.96,-1.92 -1.28,-1.6 -1.44,-1.6 -1.6,-1.44 -1.76,-1.280001 -1.92,-1.119999 -1.76,-0.800001 -1.92,-0.639999 -2.080001,-0.48 -1.92,-0.319999 -1.759998,-0.16 -1.92,0.16 -1.92,0.319999 -1.92,0.48 L -28.48,-19.200001 -30.4,-18.4 -32.16,-17.280001 -33.919998,-16 -35.52,-14.56 l -1.439999,1.6 -1.280003,1.6 -1.119999,1.92 -0.799999,1.92 -0.639999,1.92 -0.48,1.92 -0.319999,1.92 V 0 1.92 l 0.319999,1.92 0.48,1.92 0.639999,1.92 0.799999,1.92 1.119999,1.92 1.280003,1.6 1.439999,1.6 1.600002,1.44 1.759998,1.280001 1.76,1.119998 1.92,0.800002 1.920001,0.639999 1.92,0.48 1.92,0.319999 h 1.92 1.759998 L -17.120001,20.48 -15.04,20 l 1.92,-0.639999 1.76,-0.800002 1.92,-1.119998 1.76,-1.280001 1.6,-1.44 1.44,-1.6 1.28,-1.6 L -2.4,9.6 -1.44,7.68 -0.8,5.76 -0.32,3.84 -0.16,1.92 0,0" /></g></g><g
       id="g420" /><g
       id="g424" /><g
       id="g428" /><g
       id="g432" /><g
       id="g436" /><g
       id="g440" /><g
       id="g6067"
       style="stroke:#00ff00;stroke-width:1"
       transform="matrix(10.052894,0,0,10.052894,-5272.3687,-6435.9998)"><g
         style="fill:#00ff00;stroke:#00ff00;stroke-width:1"
         id="g5973"><g
           style="fill:#00ff00;stroke:#00ff00;stroke-width:1"
           id="g116"><path
             d="M 1221.76,409.28 V 324.32001"
             style="fill:#00ff00;stroke:#00ff00;stroke-width:1;stroke-linecap:round;stroke-linejoin:round;stroke-miterlimit:10;stroke-dasharray:none;stroke-opacity:1"
             id="path118"
             inkscape:connector-curvature="0" /></g><g
           style="fill:#00ff00;stroke:#00ff00;stroke-width:1"
           id="g120"><path
             d="M 1247.2,409.28 V 324.32001"
             style="fill:#00ff00;stroke:#00ff00;stroke-width:1;stroke-linecap:round;stroke-linejoin:round;stroke-miterlimit:10;stroke-dasharray:none;stroke-opacity:1"
             id="path122"
             inkscape:connector-curvature="0" /></g><g
           style="fill:#00ff00;stroke:#00ff00;stroke-width:1"
           id="g124"><path
             d="m 1221.76,409.28 h 25.44"
             style="fill:#00ff00;stroke:#00ff00;stroke-width:1;stroke-linecap:round;stroke-linejoin:round;stroke-miterlimit:10;stroke-dasharray:none;stroke-opacity:1"
             id="path126"
             inkscape:connector-curvature="0" /></g><g
           style="fill:#00ff00;stroke:#00ff00;stroke-width:1"
           id="g128"><path
             d="m 1221.76,324.32001 h 25.44"
             style="fill:#00ff00;stroke:#00ff00;stroke-width:1;stroke-linecap:round;stroke-linejoin:round;stroke-miterlimit:10;stroke-dasharray:none;stroke-opacity:1"
             id="path130"
             inkscape:connector-curvature="0" /></g><g
           style="fill:#00ff00;stroke:#00ff00;stroke-width:1"
           id="g140"><path
             d="M 1071.84,409.28 V 324.32001"
             style="fill:#00ff00;stroke:#00ff00;stroke-width:1;stroke-linecap:round;stroke-linejoin:round;stroke-miterlimit:10;stroke-dasharray:none;stroke-opacity:1"
             id="path142"
             inkscape:connector-curvature="0" /></g><g
           style="fill:#00ff00;stroke:#00ff00;stroke-width:1"
           id="g144"><path
             d="M 1046.24,409.28 V 324.32001"
             style="fill:#00ff00;stroke:#00ff00;stroke-width:1;stroke-linecap:round;stroke-linejoin:round;stroke-miterlimit:10;stroke-dasharray:none;stroke-opacity:1"
             id="path146"
             inkscape:connector-curvature="0" /></g><g
           style="fill:#00ff00;stroke:#00ff00;stroke-width:1"
           id="g148"><path
             d="m 1046.24,409.28 h 25.6"
             style="fill:#00ff00;stroke:#00ff00;stroke-width:1;stroke-linecap:round;stroke-linejoin:round;stroke-miterlimit:10;stroke-dasharray:none;stroke-opacity:1"
             id="path150"
             inkscape:connector-curvature="0" /></g><g
           style="fill:#00ff00;stroke:#00ff00;stroke-width:1"
           id="g152"><path
             d="m 1046.24,324.32001 h 25.6"
             style="fill:#00ff00;stroke:#00ff00;stroke-width:1;stroke-linecap:round;stroke-linejoin:round;stroke-miterlimit:10;stroke-dasharray:none;stroke-opacity:1"
             id="path154"
             inkscape:connector-curvature="0" /></g><g
           style="fill:#00ff00;stroke:#00ff00;stroke-width:1"
           id="g164"><path
             d="M 545.59998,324.32001 H 695.52002"
             style="fill:#00ff00;stroke:#00ff00;stroke-width:1;stroke-linecap:round;stroke-linejoin:round;stroke-miterlimit:10;stroke-dasharray:none;stroke-opacity:1"
             id="path166"
             inkscape:connector-curvature="0" /></g><g
           style="fill:#00ff00;stroke:#00ff00;stroke-width:1"
           id="g168"><path
             d="M 695.52002,409.28 V 324.32001"
             style="fill:#00ff00;stroke:#00ff00;stroke-width:1;stroke-linecap:round;stroke-linejoin:round;stroke-miterlimit:10;stroke-dasharray:none;stroke-opacity:1"
             id="path170"
             inkscape:connector-curvature="0" /></g><g
           style="fill:#00ff00;stroke:#00ff00;stroke-width:1"
           id="g172"><path
             d="M 545.59998,409.28 V 324.32001"
             style="fill:#00ff00;stroke:#00ff00;stroke-width:1;stroke-linecap:round;stroke-linejoin:round;stroke-miterlimit:10;stroke-dasharray:none;stroke-opacity:1"
             id="path174"
             inkscape:connector-curvature="0" /></g><g
           style="fill:#00ff00;stroke:#00ff00;stroke-width:1"
           id="g176"><path
             d="M 545.59998,409.28 H 695.52002"
             style="fill:#00ff00;stroke:#00ff00;stroke-width:1;stroke-linecap:round;stroke-linejoin:round;stroke-miterlimit:10;stroke-dasharray:none;stroke-opacity:1"
             id="path178"
             inkscape:connector-curvature="0" /></g><g
           style="fill:#00ff00;stroke:#00ff00;stroke-width:1"
           id="g296"><path
             d="M 720.96002,409.28 V 324.32001"
             style="fill:#00ff00;stroke:#00ff00;stroke-width:1;stroke-linecap:round;stroke-linejoin:round;stroke-miterlimit:10;stroke-dasharray:none;stroke-opacity:1"
             id="path298"
             inkscape:connector-curvature="0" /></g><g
           style="fill:#00ff00;stroke:#00ff00;stroke-width:1"
           id="g300"><path
             d="M 695.52002,409.28 V 324.32001"
             style="fill:#00ff00;stroke:#00ff00;stroke-width:1;stroke-linecap:round;stroke-linejoin:round;stroke-miterlimit:10;stroke-dasharray:none;stroke-opacity:1"
             id="path302"
             inkscape:connector-curvature="0" /></g><g
           style="fill:#00ff00;stroke:#00ff00;stroke-width:1"
           id="g304"><path
             d="m 695.52002,409.28 h 25.44"
             style="fill:#00ff00;stroke:#00ff00;stroke-width:1;stroke-linecap:round;stroke-linejoin:round;stroke-miterlimit:10;stroke-dasharray:none;stroke-opacity:1"
             id="path306"
             inkscape:connector-curvature="0" /></g><g
           style="fill:#00ff00;stroke:#00ff00;stroke-width:1"
           id="g308"><path
             d="m 695.52002,324.32001 h 25.44"
             style="fill:#00ff00;stroke:#00ff00;stroke-width:1;stroke-linecap:round;stroke-linejoin:round;stroke-miterlimit:10;stroke-dasharray:none;stroke-opacity:1"
             id="path310"
             inkscape:connector-curvature="0" /></g><g
           style="fill:#00ff00;stroke:#00ff00;stroke-width:1"
           id="g320"><path
             d="M 896.32001,324.32001 H 1046.24"
             style="fill:#00ff00;stroke:#00ff00;stroke-width:1;stroke-linecap:round;stroke-linejoin:round;stroke-miterlimit:10;stroke-dasharray:none;stroke-opacity:1"
             id="path322"
             inkscape:connector-curvature="0" /></g><g
           style="fill:#00ff00;stroke:#00ff00;stroke-width:1"
           id="g328"><path
             d="M 896.32001,409.28 V 324.32001"
             style="fill:#00ff00;stroke:#00ff00;stroke-width:1;stroke-linecap:round;stroke-linejoin:round;stroke-miterlimit:10;stroke-dasharray:none;stroke-opacity:1"
             id="path330"
             inkscape:connector-curvature="0" /></g><g
           style="fill:#00ff00;stroke:#00ff00;stroke-width:1"
           id="g332"><path
             d="M 896.32001,409.28 H 1046.24"
             style="fill:#00ff00;stroke:#00ff00;stroke-width:1;stroke-linecap:round;stroke-linejoin:round;stroke-miterlimit:10;stroke-dasharray:none;stroke-opacity:1"
             id="path334"
             inkscape:connector-curvature="0" /></g><g
           style="fill:#00ff00;stroke:#00ff00;stroke-width:1"
           id="g344"><path
             d="M 720.96002,324.32001 H 870.88"
             style="fill:#00ff00;stroke:#00ff00;stroke-width:1;stroke-linecap:round;stroke-linejoin:round;stroke-miterlimit:10;stroke-dasharray:none;stroke-opacity:1"
             id="path346"
             inkscape:connector-curvature="0" /></g><g
           style="fill:#00ff00;stroke:#00ff00;stroke-width:1"
           id="g348"><path
             d="M 870.88,409.28 V 324.32001"
             style="fill:#00ff00;stroke:#00ff00;stroke-width:1;stroke-linecap:round;stroke-linejoin:round;stroke-miterlimit:10;stroke-dasharray:none;stroke-opacity:1"
             id="path350"
             inkscape:connector-curvature="0" /></g><g
           style="fill:#00ff00;stroke:#00ff00;stroke-width:1"
           id="g352"><path
             d="M 720.96002,409.28 V 324.32001"
             style="fill:#00ff00;stroke:#00ff00;stroke-width:1;stroke-linecap:round;stroke-linejoin:round;stroke-miterlimit:10;stroke-dasharray:none;stroke-opacity:1"
             id="path354"
             inkscape:connector-curvature="0" /></g><g
           style="fill:#00ff00;stroke:#00ff00;stroke-width:1"
           id="g356"><path
             d="M 720.96002,409.28 H 870.88"
             style="fill:#00ff00;stroke:#00ff00;stroke-width:1;stroke-linecap:round;stroke-linejoin:round;stroke-miterlimit:10;stroke-dasharray:none;stroke-opacity:1"
             id="path358"
             inkscape:connector-curvature="0" /></g><g
           style="fill:#00ff00;stroke:#00ff00;stroke-width:1"
           id="g368"><path
             d="M 896.32001,409.28 V 324.32001"
             style="fill:#00ff00;stroke:#00ff00;stroke-width:1;stroke-linecap:round;stroke-linejoin:round;stroke-miterlimit:10;stroke-dasharray:none;stroke-opacity:1"
             id="path370"
             inkscape:connector-curvature="0" /></g><g
           style="fill:#00ff00;stroke:#00ff00;stroke-width:1"
           id="g372"><path
             d="M 870.88,409.28 V 324.32001"
             style="fill:#00ff00;stroke:#00ff00;stroke-width:1;stroke-linecap:round;stroke-linejoin:round;stroke-miterlimit:10;stroke-dasharray:none;stroke-opacity:1"
             id="path374"
             inkscape:connector-curvature="0" /></g><g
           style="fill:#00ff00;stroke:#00ff00;stroke-width:1"
           id="g376"><path
             d="m 870.88,409.28 h 25.44001"
             style="fill:#00ff00;stroke:#00ff00;stroke-width:1;stroke-linecap:round;stroke-linejoin:round;stroke-miterlimit:10;stroke-dasharray:none;stroke-opacity:1"
             id="path378"
             inkscape:connector-curvature="0" /></g><g
           style="fill:#00ff00;stroke:#00ff00;stroke-width:1"
           id="g380"><path
             d="m 870.88,324.32001 h 25.44001"
             style="fill:#00ff00;stroke:#00ff00;stroke-width:1;stroke-linecap:round;stroke-linejoin:round;stroke-miterlimit:10;stroke-dasharray:none;stroke-opacity:1"
             id="path382"
             inkscape:connector-curvature="0" /></g><g
           style="fill:#00ff00;stroke:#00ff00;stroke-width:1"
           id="g392"><path
             d="m 1071.84,324.32001 h 149.92"
             style="fill:#00ff00;stroke:#00ff00;stroke-width:1;stroke-linecap:round;stroke-linejoin:round;stroke-miterlimit:10;stroke-dasharray:none;stroke-opacity:1"
             id="path394"
             inkscape:connector-curvature="0" /></g><g
           style="fill:#00ff00;stroke:#00ff00;stroke-width:1"
           id="g404"><path
             d="m 1071.84,409.28 h 149.92"
             style="fill:#00ff00;stroke:#00ff00;stroke-width:1;stroke-linecap:round;stroke-linejoin:round;stroke-miterlimit:10;stroke-dasharray:none;stroke-opacity:1"
             id="path406"
             inkscape:connector-curvature="0" /></g><g
           style="fill:#00ff00;stroke:#00ff00;stroke-width:1"
           id="g416" /></g><path
         sodipodi:nodetypes="ccccccccc"
         inkscape:connector-curvature="0"
         d="m 1071.84,409.28 -18.08,18.07999 v 149.92004 l 18.08,17.91998 h 149.92 l 17.9201,-17.91998 V 427.35999 L 1221.76,409.28 Z"
         style="fill:none;stroke:#00ff00;stroke-width:1;stroke-linecap:round;stroke-linejoin:round;stroke-miterlimit:10;stroke-dasharray:none;stroke-opacity:1"
         id="path446" /><g
         id="g1008"
         style="stroke:#00ff00;stroke-width:1;fill:#00ff00"><path
           inkscape:connector-curvature="0"
           id="path1010"
           style="fill:#00ff00;stroke:#00ff00;stroke-width:1;stroke-linecap:round;stroke-linejoin:round;stroke-miterlimit:10;stroke-dasharray:none;stroke-opacity:1"
           d="m 1053.76,577.28003 18.08,17.91998 -6.56,6.56 -18.08,-17.91998 6.56,-6.56" /></g><g
         id="g1012"
         style="stroke:#00ff00;stroke-width:1;fill:#00ff00"><path
           inkscape:connector-curvature="0"
           id="path1014"
           style="fill:#00ff00;stroke:#00ff00;stroke-width:1;stroke-linecap:round;stroke-linejoin:round;stroke-miterlimit:10;stroke-dasharray:none;stroke-opacity:1"
           d="m 1071.84,595.20001 h 149.92 v 10.71997 h -149.92 v -10.71997" /></g><g
         id="g1016"
         style="stroke:#00ff00;stroke-width:1;fill:#00ff00"><path
           inkscape:connector-curvature="0"
           id="path1018"
           style="fill:#00ff00;stroke:#00ff00;stroke-width:1;stroke-linecap:round;stroke-linejoin:round;stroke-miterlimit:10;stroke-dasharray:none;stroke-opacity:1"
           d="M 1239.6801,577.28003 V 427.35999 H 1250.4 v 149.92004 h -10.7199" /></g><g
         id="g1020"
         style="stroke:#00ff00;stroke-width:1;fill:#00ff00"><path
           inkscape:connector-curvature="0"
           id="path1022"
           style="fill:#00ff00;stroke:#00ff00;stroke-width:1;stroke-linecap:round;stroke-linejoin:round;stroke-miterlimit:10;stroke-dasharray:none;stroke-opacity:1"
           d="M 1053.76,577.28003 V 427.35999 h -10.56 v 149.92004 h 10.56" /></g><g
         id="g1024"
         style="stroke:#00ff00;stroke-width:1;fill:#00ff00"><path
           inkscape:connector-curvature="0"
           id="path1026"
           style="fill:#00ff00;stroke:#00ff00;stroke-width:1;stroke-linecap:round;stroke-linejoin:round;stroke-miterlimit:10;stroke-dasharray:none;stroke-opacity:1"
           d="m 1221.76,595.20001 17.9201,-17.91998 6.5599,6.56 -17.9201,17.91998 -6.5599,-6.56" /></g></g><g
       id="g5807"
       style="stroke:#000000;stroke-width:1"
       transform="matrix(10.052894,0,0,10.052894,-5272.3687,-6435.9998)"><g
         transform="translate(740.32001,592.96002)"
         id="g608"
         style="stroke:#000000;stroke-width:1"><path
           inkscape:connector-curvature="0"
           id="path610"
           style="fill:none;stroke:#000000;stroke-width:1;stroke-linecap:round;stroke-linejoin:round;stroke-miterlimit:10;stroke-dasharray:none;stroke-opacity:1"
           d="M 0,0 -18.879999,18.879999 H -170.08 L -188.96001,0 V -151.2 L -170.08,-170.08 H -18.879999 L 0,-151.2 V 0" /></g><g
         transform="translate(589.28003,517.28003)"
         id="g612"
         style="stroke:#000000;stroke-width:1"><path
           inkscape:connector-curvature="0"
           id="path614"
           style="fill:none;stroke:#000000;stroke-width:1;stroke-linecap:round;stroke-linejoin:round;stroke-miterlimit:10;stroke-dasharray:none;stroke-opacity:1"
           d="m 0,0 v 2.56 l 0.16,2.56 0.32,2.56 0.32,2.72 0.64,2.56 0.64,2.72 0.8,2.56 0.96,2.719999 1.12,2.560001 1.28,2.56 1.44,2.559999 1.44,2.400002 1.76,2.399998 1.76,2.400001 1.92,2.079998 1.92,2.240002 2.239999,1.920002 2.24,1.919998 2.240002,1.759998 L 25.6,47.52 l 2.4,1.439999 2.559999,1.440003 2.56,1.279998 2.560001,1.119999 2.720002,0.959999 2.559997,0.800003 2.720001,0.64 2.560002,0.639999 2.719997,0.32 2.560001,0.32 2.560002,0.159999 2.559997,0.16 2.560002,-0.16 L 61.759998,56.48 64.32,56.16 l 2.559997,-0.32 2.720001,-0.639999 2.560006,-0.64 2.719993,-0.800003 2.560005,-0.959999 L 80.160004,51.68 82.720001,50.400002 85.120003,48.959999 87.68,47.52 90.080002,45.759998 92.32,44 94.559998,42.080002 96.639999,40.16 98.720001,37.919998 100.64,35.84 l 1.76,-2.400001 1.6,-2.399998 1.6,-2.400002 1.44,-2.559999 1.12,-2.56 1.12,-2.560001 0.96,-2.719999 0.96,-2.56 0.64,-2.72 0.48,-2.56 0.48,-2.72 0.32,-2.56 0.16,-2.56 V 0 -2.56 l -0.16,-2.56 -0.32,-2.56 -0.48,-2.56 -0.48,-2.72 -0.64,-2.56 -0.96,-2.72 -0.96,-2.559999 -1.12,-2.720001 -1.12,-2.56 -1.44,-2.4 -1.6,-2.560001 -1.6,-2.399998 L 100.64,-35.68 98.720001,-37.919998 96.639999,-40 94.559998,-42.080002 92.32,-44 90.080002,-45.759998 87.68,-47.360001 85.120003,-48.959999 82.720001,-50.400002 80.160004,-51.52 77.440002,-52.639999 74.879997,-53.599998 72.160004,-54.400002 69.599998,-55.200001 66.879997,-55.68 64.32,-56.16 61.759998,-56.48 59.200001,-56.639999 H 56.639999 54.080002 L 51.52,-56.48 l -2.560001,0.32 -2.719997,0.48 -2.560002,0.479999 -2.720001,0.799999 -2.559997,0.800004 -2.720002,0.959999 -2.560001,1.119999 -2.56,1.119998 L 28,-48.959999 25.6,-47.360001 23.200001,-45.759998 20.959999,-44 l -2.24,1.919998 L 16.48,-40 14.56,-37.919998 12.64,-35.68 10.88,-33.439999 9.12,-31.040001 7.68,-28.48 6.24,-26.08 4.96,-23.52 3.84,-20.799999 2.88,-18.24 2.08,-15.52 1.44,-12.96 0.8,-10.24 0.48,-7.68 0.16,-5.12 0,-2.56 V 0" /></g><g
         id="g1028"
         style="stroke:#000000;stroke-width:1;fill:#b3b3b3"><path
           inkscape:connector-curvature="0"
           id="path1030"
           style="fill:#b3b3b3;stroke:#000000;stroke-width:1;stroke-linecap:round;stroke-linejoin:round;stroke-miterlimit:10;stroke-dasharray:none;stroke-opacity:1"
           d="M 740.32001,441.76001 721.44,422.88 l 6.56,-6.72 19.03998,19.04001 -6.71997,6.56" /></g><g
         id="g1036"
         style="stroke:#000000;stroke-width:1;fill:#b3b3b3"><path
           inkscape:connector-curvature="0"
           id="path1038"
           style="fill:#b3b3b3;stroke:#000000;stroke-width:1;stroke-linecap:round;stroke-linejoin:round;stroke-miterlimit:10;stroke-dasharray:none;stroke-opacity:1"
           d="m 570.23999,422.88 -18.88001,18.88001 -6.55999,-6.56 18.88,-19.04001 6.56,6.72" /></g><g
         id="g1044"
         style="stroke:#000000;stroke-width:1;fill:#b3b3b3"><path
           inkscape:connector-curvature="0"
           id="path1046"
           style="fill:#b3b3b3;stroke:#000000;stroke-width:1;stroke-linecap:round;stroke-linejoin:round;stroke-miterlimit:10;stroke-dasharray:none;stroke-opacity:1"
           d="m 541.91998,592.96002 h 9.44 V 441.76001 h -9.44 v 151.20001" /></g><g
         id="g1048"
         style="stroke:#000000;stroke-width:1;fill:#b3b3b3"><path
           inkscape:connector-curvature="0"
           id="path1050"
           style="fill:#b3b3b3;stroke:#000000;stroke-width:1;stroke-linecap:round;stroke-linejoin:round;stroke-miterlimit:10;stroke-dasharray:none;stroke-opacity:1"
           d="m 740.32001,592.96002 h 9.44 V 441.76001 h -9.44 v 151.20001" /></g><g
         id="g1060"
         style="stroke:#000000;stroke-width:1;fill:#b3b3b3"><path
           inkscape:connector-curvature="0"
           id="path1062"
           style="fill:#b3b3b3;stroke:#000000;stroke-width:1;stroke-linecap:round;stroke-linejoin:round;stroke-miterlimit:10;stroke-dasharray:none;stroke-opacity:1"
           d="m 721.44,422.88 v -9.44 H 570.23999 v 9.44 H 721.44" /></g></g><text
       xml:space="preserve"
       style="font-style:normal;font-variant:normal;font-weight:500;font-stretch:normal;font-size:137.14125061px;line-height:1.25;font-family:'Brandon Grotesque';-inkscape-font-specification:'Brandon Grotesque, Medium';font-variant-ligatures:normal;font-variant-caps:normal;font-variant-numeric:normal;font-feature-settings:normal;text-align:center;letter-spacing:0px;word-spacing:0px;writing-mode:lr-tb;text-anchor:middle;fill:#000000;fill-opacity:1;stroke:none;stroke-width:2.56671405"
       x="1238.4928"
       y="932.97742"
       id="text6083"><tspan
         sodipodi:role="line"
         id="tspan6081"
         x="1238.4928"
         y="932.97742"
         style="stroke-width:2.56671405">40cm</tspan></text>
<path
       style="fill:none;stroke:#000000;stroke-width:3;stroke-linecap:butt;stroke-linejoin:miter;stroke-opacity:1;marker-start:url(#Arrow1Lstart-6);marker-end:url(#Arrow1Lend-9)"
       d="M 457.5634,988.0606 H 1977.561"
       id="path6085"
       inkscape:connector-curvature="0" /><text
       id="text6565"
       y="988.43933"
       x="4526.2188"
       style="font-style:normal;font-variant:normal;font-weight:500;font-stretch:normal;font-size:137.14125061px;line-height:1.25;font-family:'Brandon Grotesque';-inkscape-font-specification:'Brandon Grotesque, Medium';font-variant-ligatures:normal;font-variant-caps:normal;font-variant-numeric:normal;font-feature-settings:normal;text-align:center;letter-spacing:0px;word-spacing:0px;writing-mode:lr-tb;text-anchor:middle;fill:#000000;fill-opacity:1;stroke:none;stroke-width:2.56671405"
       xml:space="preserve"><tspan
         style="stroke-width:2.56671405"
         y="988.43933"
         x="4541.3525"
         id="tspan6563"
         sodipodi:role="line">Total size of cardboard = 190cm x 105cm </tspan></text>
</g></svg>